<svg width="1022" height="123" viewBox="0 0 1022 123" fill="none" xmlns="http://www.w3.org/2000/svg">
<path d="M0 52.1366H74.9346V72.7072H20.4072V122.502H0V52.1366ZM0 0.0584412H81.6287V20.4656H0V0.0584412Z" fill="#FF0000"/>
<path d="M112.148 122.673L159.656 61.6149L112.148 0.0665894H139.249L173.206 45.4526L207.489 0.0665894H234.754L189.344 61.6149L234.734 122.673H207.463L173.185 77.4464L139.214 122.673H112.148Z" fill="#FF0000"/>
<path d="M408.981 122.51H386.288L359.187 72.5519H313.801V52.308H372.737C375.24 52.1992 377.471 51.5461 379.43 50.3489C381.172 49.3693 382.75 47.7912 384.165 45.6144C385.58 43.4376 386.287 40.3357 386.287 36.3088C386.287 32.3907 385.58 29.3431 384.165 27.1664C382.75 24.9896 381.172 23.4115 379.43 22.4319C377.471 21.2347 375.24 20.5816 372.737 20.4728H313.801V0.0656128H372.737C379.049 0.392128 384.709 1.91588 389.715 4.63689C391.783 5.83411 393.851 7.30342 395.919 9.04478C397.987 10.7861 399.783 12.9085 401.307 15.4118C402.939 17.9152 404.246 20.9082 405.225 24.391C406.205 27.7649 406.694 31.7376 406.694 36.3089C406.694 43.71 405.497 49.8049 403.103 54.5937C400.708 59.2738 397.988 62.9743 394.94 65.6953C392.001 68.3074 389.172 70.1033 386.451 71.0828C383.839 72.0624 382.26 72.5522 381.716 72.5522L408.981 122.51Z" fill="#FF0000"/>
<path d="M447.896 122.51V102.103H529.688V122.51H447.896ZM520.545 51.0029V71.41H447.896V51.0029H520.545ZM447.896 0.0665894H529.688V20.4738H447.896V0.0665894Z" fill="#FF0000"/>
<path d="M636.525 0.229986C642.837 0.556501 648.497 2.0258 653.503 4.63787C655.571 5.72625 657.639 7.1411 659.707 8.88249C661.775 10.5151 663.571 12.5831 665.095 15.0864C666.727 17.5897 668.034 20.5284 669.013 23.9023C669.993 27.2763 670.482 31.1944 670.482 35.6568C670.482 40.2279 669.993 44.2006 669.013 47.5746C668.034 50.9486 666.728 53.9417 665.095 56.5538C663.571 59.0571 661.775 61.1795 659.707 62.9209C657.639 64.6623 655.571 66.0772 653.503 67.1656C648.497 69.8866 642.837 71.4103 636.525 71.7369H595.383V122.51H574.976V51.1663H635.056C635.165 51.1663 636.035 51.1119 637.668 51.003C639.3 50.7854 640.988 50.1868 642.729 49.2072C644.579 48.2277 646.266 46.7039 647.79 44.6359C649.314 42.568 650.075 39.5749 650.075 35.6568C650.075 31.8474 649.259 28.9632 647.627 27.004C646.103 24.9361 644.416 23.4123 642.566 22.4327C640.389 21.2355 637.886 20.5825 635.056 20.4736H574.978V0.0664673H636.527L636.525 0.229986Z" fill="#FF0000"/>
<path d="M794.226 102.593V123H712.27V0.22998H732.677V102.593H794.226Z" fill="#FF0000"/>
<path d="M968.841 65.8639V122.514H948.434V65.8639L898.476 0.0706482H923.455L959.861 45.4568L993.818 0.0706482H1021.08L968.841 65.8639Z" fill="#FF0000"/>
<path d="M829.566 0.00528991C829.205 -0.00900942 828.889 0.00574191 828.634 0.0488033C828.422 0.0843474 828.115 0.152943 827.952 0.200539C827.789 0.24834 827.526 0.342326 827.367 0.410064C827.208 0.477271 826.942 0.614528 826.776 0.71497C826.611 0.815474 826.369 0.979077 826.239 1.0786C826.11 1.17849 825.854 1.41713 825.671 1.60893C825.488 1.80115 825.24 2.10518 825.121 2.28469C825.001 2.46466 824.834 2.76327 824.748 2.94824C824.663 3.13373 824.542 3.45903 824.481 3.6717C824.419 3.88439 824.347 4.21618 824.32 4.40887C824.285 4.65701 824.271 21.3287 824.271 61.3693C824.271 110.943 824.279 118.031 824.338 118.393C824.375 118.619 824.447 118.941 824.499 119.108C824.55 119.275 824.653 119.547 824.727 119.712C824.801 119.878 824.977 120.189 825.118 120.405C825.258 120.62 825.55 120.971 825.766 121.184C825.982 121.397 826.302 121.666 826.476 121.782C826.65 121.897 826.936 122.064 827.111 122.151C827.286 122.238 827.588 122.363 827.782 122.427C827.975 122.492 828.3 122.576 828.502 122.615C828.705 122.653 829.101 122.685 829.383 122.685C829.664 122.685 830.068 122.654 830.281 122.618C830.493 122.58 830.849 122.487 831.071 122.409C831.292 122.331 831.638 122.174 831.838 122.06C832.038 121.946 832.324 121.76 832.474 121.645C832.624 121.531 848.862 108.776 868.559 93.3017C895.33 72.2694 904.453 65.0768 904.698 64.8154C904.878 64.6223 905.109 64.3382 905.211 64.1832C905.313 64.0288 905.477 63.736 905.575 63.5329C905.673 63.3298 905.804 62.988 905.866 62.773C905.929 62.558 906.003 62.2027 906.033 61.9832C906.062 61.7637 906.075 61.3692 906.062 61.1069C906.047 60.8442 906.003 60.4661 905.961 60.2662C905.919 60.0662 905.804 59.6958 905.706 59.4436C905.607 59.1909 905.407 58.8023 905.26 58.5801C905.113 58.3574 904.864 58.0352 904.706 57.863C904.502 57.6439 893.917 49.3001 868.703 29.4911C849.059 14.0574 832.801 1.28665 832.574 1.11301C832.347 0.938969 832.037 0.727212 831.885 0.64303C831.733 0.558051 831.45 0.424767 831.254 0.347101C831.06 0.269476 830.722 0.166527 830.505 0.11744C830.287 0.0692306 829.864 0.0194167 829.564 0.00716012L829.566 0.00528991Z" fill="#1E2128"/>
</svg>
